# File created by Blade
# Date/Time:  Tue Jan 27 18:55:50 2015
# Frame Rate: 120.000 fps
#------------------------------------------------------
:FULLY-SPECIFIED
:DEGREES
1833
root -0.814754 31.849681 -5.606964 2.333219 -11.033142 -11.299121
Spine 4.091995 -10.055113 1.764639
Head 13.882696 -22.744668 10.054865
LeftShoulder -15.884693 17.151244 13.359236
LeftArm 5.196853 -36.869474 -74.133983
LeftForeArm -0.812827 0.000000 101.750665
LeftHand -12.076513 -0.000000 23.334106
LeftHandThumb1 -26.253704 0.000000 33.147579
RightShoulder -14.088704 -4.628248 -5.756750
RightArm 5.862847 -30.845838 77.542108
RightForeArm -25.890885 0.000000 23.968423
RightHand -14.333519 -0.000000 11.997575
RightHandThumb1 -24.326973 -0.000000 -32.862282
LeftUpLeg -7.072949 10.737729 0.584866
LeftLeg 20.933245 -0.000000 -0.000000
LeftFoot -35.127793 28.799715 -25.683045
LeftToeBase 9.265590 -0.000000 -0.000000
RightUpLeg -55.500904 -23.688466 9.961741
RightLeg 94.971946 -0.000000 -0.000000
RightFoot -20.850533 -29.062369 15.676046
RightToeBase 13.020905 -0.000000 -0.000000
1834
root -0.811045 31.840677 -5.599686 2.335717 -11.185056 -11.182455
Spine 4.055825 -10.117593 1.685836
Head 13.789285 -22.717196 9.949893
LeftShoulder -15.887040 17.133843 13.258187
LeftArm 5.119369 -36.853770 -74.065193
LeftForeArm -0.680952 -0.000000 101.835142
LeftHand -12.153208 -0.000000 23.174154
LeftHandThumb1 -26.253704 0.000000 33.147579
RightShoulder -14.099311 -4.609182 -5.804168
RightArm 5.864995 -30.880630 77.552890
RightForeArm -25.872321 -0.000000 23.946535
RightHand -14.498600 -0.000000 11.960594
RightHandThumb1 -24.326973 -0.000000 -32.862282
LeftUpLeg -7.029817 10.757314 0.427871
LeftLeg 20.827252 -0.000000 -0.000000
LeftFoot -35.128217 29.042146 -25.533166
LeftToeBase 9.164432 -0.000000 -0.000000
RightUpLeg -55.532270 -23.976402 10.221699
RightLeg 95.140712 -0.000000 -0.000000
RightFoot -21.029049 -28.871464 15.846745
RightToeBase 12.889994 -0.000000 -0.000000
1835
root -0.809747 31.832934 -5.591358 2.354133 -11.372955 -11.099911
Spine 4.007839 -10.128035 1.637868
Head 13.693326 -22.717905 9.889149
LeftShoulder -15.911608 17.124395 13.177809
LeftArm 5.093501 -36.782229 -74.061799
LeftForeArm -0.532719 -0.000000 101.902295
LeftHand -12.149357 -0.000000 23.110336
LeftHandThumb1 -26.253704 0.000000 33.147579
RightShoulder -14.122512 -4.612455 -5.846524
RightArm 5.876034 -30.882344 77.554072
RightForeArm -25.855062 -0.000000 23.914620
RightHand -14.452891 -0.000000 11.997973
RightHandThumb1 -24.326973 -0.000000 -32.862282
LeftUpLeg -7.000090 10.782692 0.310680
LeftLeg 20.748644 -0.000000 -0.000000
LeftFoot -35.160385 29.254684 -25.471673
LeftToeBase 9.168159 -0.000000 -0.000000
RightUpLeg -55.538290 -24.185332 10.488393
RightLeg 95.243960 -0.000000 -0.000000
RightFoot -20.970190 -28.706244 15.779226
RightToeBase 12.800185 -0.000000 -0.000000
1836
root -0.808356 31.826585 -5.582430 2.377071 -11.581535 -11.037422
Spine 3.957579 -10.120346 1.613369
Head 13.611961 -22.749014 9.821695
LeftShoulder -15.938200 17.150309 13.096261
LeftArm 5.092432 -36.697973 -74.099253
LeftForeArm -0.339909 -0.000000 101.979707
LeftHand -12.209580 0.000000 22.972360
LeftHandThumb1 -26.253704 0.000000 33.147579
RightShoulder -14.109948 -4.605172 -5.890596
RightArm 5.825969 -30.839555 77.566045
RightForeArm -25.841741 -0.000000 23.922502
RightHand -14.420896 0.000000 11.991749
RightHandThumb1 -24.326973 -0.000000 -32.862282
LeftUpLeg -6.982797 10.819260 0.215165
LeftLeg 20.704814 -0.000000 -0.000000
LeftFoot -35.211298 29.471798 -25.424456
LeftToeBase 9.153460 -0.000000 -0.000000
RightUpLeg -55.512256 -24.346131 10.739213
RightLeg 95.307166 -0.000000 -0.000000
RightFoot -20.826463 -28.500946 15.552289
RightToeBase 12.240033 -0.000000 -0.000000
1837
root -0.806508 31.820463 -5.570890 2.380166 -11.782408 -10.971801
Spine 3.926678 -10.141007 1.581918
Head 13.536661 -22.787759 9.749340
LeftShoulder -15.939407 17.175467 13.031218
LeftArm 5.022403 -36.643301 -74.129111
LeftForeArm -0.179269 -0.000000 102.099569
LeftHand -12.329275 -0.000000 22.769697
LeftHandThumb1 -26.253704 0.000000 33.147579
RightShoulder -14.067961 -4.578404 -5.953188
RightArm 5.767840 -30.806224 77.598727
RightForeArm -25.845338 -0.000000 23.899237
RightHand -14.363286 -0.000000 12.039359
RightHandThumb1 -24.326973 -0.000000 -32.862282
LeftUpLeg -6.948998 10.803032 0.119397
LeftLeg 20.678151 -0.000000 -0.000000
LeftFoot -35.303041 29.698947 -25.447798
LeftToeBase 9.202771 -0.000000 -0.000000
RightUpLeg -55.446511 -24.496198 10.948781
RightLeg 95.329298 -0.000000 -0.000000
RightFoot -20.924089 -28.152324 15.759407
RightToeBase 11.601409 -0.000000 -0.000000
1838
root -0.805222 31.816067 -5.562906 2.394225 -12.054024 -10.947536
Spine 3.922064 -10.087001 1.584520
Head 13.415421 -22.831918 9.722878
LeftShoulder -15.975412 17.158934 12.969482
LeftArm 4.954466 -36.514136 -74.166850
LeftForeArm -0.022629 -0.000000 102.224009
LeftHand -12.342346 0.000000 22.812480
LeftHandThumb1 -26.253704 0.000000 33.147579
RightShoulder -14.040442 -4.547108 -6.005386
RightArm 5.767845 -30.834644 77.592307
RightForeArm -25.812446 -0.000000 23.837335
RightHand -14.324594 -0.000000 12.020722
RightHandThumb1 -24.326973 -0.000000 -32.862282
LeftUpLeg -6.926633 10.871120 0.069819
LeftLeg 20.678439 -0.000000 -0.000000
LeftFoot -35.380064 29.889481 -25.462722
LeftToeBase 9.164638 -0.000000 -0.000000
RightUpLeg -55.355200 -24.548801 11.179472
RightLeg 95.291908 -0.000000 -0.000000
RightFoot -20.890987 -27.843379 15.744479
RightToeBase 11.765796 -0.000000 -0.000000
